<svg width="49" height="37" xmlns="http://www.w3.org/2000/svg">

 <g>
  <title>background</title>
  <rect fill="none" id="canvas_background" height="602" width="802" y="-1" x="-1"/>
 </g>
 <g>
  <title>Layer 1</title>
  <path fill="white" d="m22.5,13.05c0,10.282 -7.783,21.038 -20,23.45l-1.969,-4.252c4.43,-1.67 8.326,-7.484 8.76,-11.492c-4.98,-0.783 -8.791,-5.095 -8.791,-10.297c0,-6.364 5.168,-9.959 10.398,-9.959c6.03,0 11.602,4.61 11.602,12.55zm26,0c0,10.282 -7.783,21.038 -20,23.45l-1.969,-4.252c4.43,-1.67 8.326,-7.484 8.76,-11.492c-4.98,-0.783 -8.791,-5.095 -8.791,-10.297c0,-6.364 5.168,-9.959 10.398,-9.959c6.03,0 11.602,4.61 11.602,12.55z" id="quote-7"/>
 </g>
</svg>